<?xml version="1.0" standalone="no"?>
<!DOCTYPE svg PUBLIC "-//W3C//DTD SVG 20010904//EN"
 "http://www.w3.org/TR/2001/REC-SVG-20010904/DTD/svg10.dtd">
<svg version="1.0" xmlns="http://www.w3.org/2000/svg"
 width="603.000000pt" height="414.000000pt" viewBox="0 0 603.000000 414.000000"
 preserveAspectRatio="xMidYMid meet">

<g transform="translate(0.000000,414.000000) scale(0.100000,-0.100000)"
fill="#000000" stroke="none">
<path d="M4805 4000 c-151 -34 -261 -89 -376 -187 -211 -181 -323 -475 -290
-759 26 -223 103 -393 242 -535 78 -79 133 -118 241 -169 131 -63 228 -83 393
-82 151 0 232 14 345 59 113 46 182 93 280 192 75 76 105 115 142 186 173 333
143 717 -79 1007 -78 102 -234 208 -383 260 -142 50 -366 62 -515 28z m306
-350 c86 -16 191 -73 245 -133 85 -94 123 -208 124 -370 1 -341 -212 -546
-528 -507 -184 23 -308 120 -369 289 -30 80 -41 241 -25 344 22 137 111 271
222 331 89 48 220 67 331 46z"/>
<path d="M158 3160 c-2 -463 0 -850 4 -861 7 -18 17 -19 195 -17 l188 3 3 508
c2 383 5 508 14 505 18 -6 22 -17 152 -373 14 -38 48 -131 77 -205 28 -74 75
-200 104 -279 30 -79 60 -148 67 -152 7 -5 79 -9 160 -9 165 0 164 -1 192 76
42 116 56 154 85 232 17 45 44 117 61 160 16 42 65 176 110 297 88 240 91 247
108 253 9 3 12 -122 14 -505 l3 -508 200 0 200 0 0 855 0 855 -234 3 c-146 1
-238 -1 -246 -8 -6 -5 -117 -273 -246 -595 -153 -382 -238 -584 -247 -583 -7
2 -52 102 -101 223 -48 121 -97 240 -109 265 -21 46 -157 385 -172 430 -5 14
-31 79 -59 145 l-50 120 -235 3 -236 2 -2 -840z"/>
<path d="M2415 3978 c-3 -13 -4 -399 -3 -858 l3 -835 200 0 200 0 3 858 2 857
-200 0 c-199 0 -200 0 -205 -22z"/>
<path d="M3149 3993 c-7 -58 -3 -1691 4 -1700 7 -10 115 -13 477 -13 l467 0 5
143 c3 78 3 148 1 154 -4 10 -72 13 -277 15 l-271 3 -5 700 -5 700 -197 3
c-109 1 -198 -1 -199 -5z"/>
<path d="M167 1973 c-4 -3 -7 -417 -7 -920 l0 -913 1028 -2 c1386 -4 1704 -4
1725 1 16 3 17 53 15 920 l-3 916 -1376 3 c-756 1 -1379 -1 -1382 -5z"/>
<path d="M3247 1914 c-4 -4 -7 -402 -7 -885 0 -861 0 -879 20 -889 13 -7 179
-9 497 -8 l478 3 3 157 3 158 -288 2 -288 3 -5 730 -5 730 -201 3 c-110 1
-203 -1 -207 -4z"/>
<path d="M4557 1913 c-4 -3 -7 -404 -7 -889 l0 -884 23 -5 c12 -3 256 -4 542
-3 l520 3 3 163 2 162 -330 0 -330 0 -5 23 c-3 12 -4 105 -2 207 l2 185 295 5
295 5 3 146 c2 114 -1 149 -11 157 -9 8 -105 13 -298 14 l-284 3 0 185 0 185
330 5 330 5 0 165 0 165 -536 3 c-294 1 -539 -1 -542 -5z"/>
</g>
</svg>
