<svg xmlns="http://www.w3.org/2000/svg" version="1.1" xmlns:xlink="http://www.w3.org/1999/xlink" width="200" height="200"><svg id="SvgjsSvg1003" xmlns="http://www.w3.org/2000/svg" version="1.1" viewBox="0 0 200 200">
  <!-- Generator: Adobe Illustrator 29.1.0, SVG Export Plug-In . SVG Version: 2.1.0 Build 142)  -->
  <g id="SvgjsG1002">
    <path d="M46,2.3c-.8.3-1.3.8-1.7,1.6-.1.3-.2,1.2-.2,12.6-.1,20.2-.1,63.4,0,69.7.2,7.7.3,11.6.4,13.1.6,8.6,2.7,16.1,6.4,22.5,2.5,4.3,5.9,8.4,9.8,11.7,5.8,4.9,13.5,8.5,22.2,10.7,12.5,3.1,24.5,2.8,35.5-.9,8.2-2.7,15.2-7,21.2-12.9,6.4-6.3,11.2-13.9,14.1-22.5,1.9-5.8,2.9-11.4,3.1-18.1.2-5.1,0-61.2-.2-80.9v-4.7c0,0-.3-.4-.3-.4-.3-.7-.7-1-1.2-1.3l-.5-.3h-24.2l-.4.2c-.5.3-1.1.9-1.4,1.4l-.2.4v33.8c0,40.1-.1,52.8-.6,56.1-.3,2.4-.8,4.4-1.5,6.6-2.5,7.6-6.3,12.6-12.1,15.8-4.3,2.4-9.9,3.6-15.1,3.3-11.8-.8-20.9-6.9-24.8-16.7-1.1-2.7-1.7-5.4-2.1-8.7-.2-1.9-.2-5.8,0-7.3.7-5,2.3-9,5.5-13.2,1.4-1.9,2.8-3.5,6.1-6.8,4.1-4.2,5.3-5.7,6.3-7.8,1.7-3.5,1.2-7.1-1.6-11.2-1.4-2-2.2-3-6.7-7.6-3.4-3.5-4.5-4.7-5.9-6.5-4.6-5.8-6.5-10.8-6.5-17.5,0-3.3.4-6.4,1.4-10.1.2-.9.3-1.3.3-1.7,0-1-.8-2-1.7-2.4l-.5-.2h-11.1c-9.2,0-11.1,0-11.4.1Z"></path>
    <path d="M99.3,79.4c-4.1.3-7.9,2.7-9.9,6.3-2.4,4.2-2.2,9.4.4,13.4,1.9,2.8,4.8,4.8,8.2,5.5,1.2.2,3.8.2,4.9,0,3.6-.8,6.7-3,8.5-6.2,1.7-3.1,2.1-6.9,1-10.2-.6-1.9-1.6-3.6-3.1-5-2.7-2.7-6.2-4-10-3.7Z"></path>
    <path d="M13.5,164.6c-1.6.1-3.7.6-4.9,1.1-2.4,1-4.5,3-5.2,5.1-.3.9-.4,1.5-.4,2.7,0,2.5.6,4.2,2.1,5.7,1.1,1.1,2.1,1.8,3.6,2.5.8.4,3.4,1.1,5.7,1.7,2.6.6,3.8,1.1,5.1,1.8,1.8,1,2.6,2.6,2.4,4.4-.2,1.8-1.4,3-3.6,3.6-3,.8-6.5.3-8.7-1.2-1.2-.9-2-2.4-2.2-4.1v-.6H2v.6c.3,2.3,1.1,4.3,2.4,6,1.2,1.5,3.3,2.8,6,3.5,1.6.4,2.2.5,4.5.5s3.5-.1,5.1-.6c5.3-1.4,8.2-5.4,7.4-10.5-.1-1-.5-2-1-2.8-.6-1-2-2.3-3.2-3-.9-.5-1.8-.8-5.2-1.7-3.8-1-5-1.4-6.3-2-1.4-.7-2.1-1.2-2.7-2-.5-.7-.7-1.8-.6-2.8.1-.9.5-1.5,1.1-2.1,1.1-1,2.6-1.5,4.7-1.6,3.3-.1,5.9,1,6.9,3,.3.7.7,1.8.7,2.3v.3h5.5v-.6c-.3-2.4-1.3-4.6-2.8-6.1-1.2-1.2-3.6-2.4-5.8-2.8-1.3-.3-3.6-.4-5.3-.2Z"></path>
    <path d="M180.6,164.6c-5.3.6-9.3,3.3-11.5,7.8-.8,1.6-1.3,3.4-1.6,5.6-.2,1.1-.1,5.2,0,6.3.5,3.6,1.6,6.3,3.5,8.6,2.7,3.2,6.7,4.9,11.7,4.9s8.2-1.4,10.9-4.1c1.1-1.1,1.9-2.2,2.6-3.7.9-1.9,1.4-3.6,1.7-6,.2-1.9.1-5.3-.2-7-1.3-7.2-6-11.8-13.1-12.4-1.1-.1-3.1-.1-4.1,0ZM184.4,169.1c2.1.3,3.7,1.1,5,2.5,2,2.1,2.9,4.9,3,8.9,0,1.9,0,3.1-.3,4.6-1.1,5.2-4.4,8.2-9.4,8.2s-6.8-1.6-8.5-4.9c-1-2-1.5-4.9-1.4-7.9.1-3.2.8-5.7,2.1-7.6.8-1.2,2.1-2.3,3.4-2.9,1.6-.7,4-1,6-.7Z"></path>
    <path d="M35.3,167.2v2.2h10.1v27.8h5.4v-27.8h10.1v-4.4h-25.7v2.2Z"></path>
    <path d="M71,175.2c0,5.8,0,10.7,0,11.4.2,3.4,1.2,5.8,3.2,7.8,2.3,2.3,5.6,3.5,9.8,3.5s5.9-.7,8.2-2.2c2-1.3,3.4-3.2,4.2-5.6.6-2,.6-1.3.6-13.8v-11.2s-5.2,0-5.2,0v10.8c0,10.7,0,10.8-.2,11.6-.5,2.1-1.3,3.4-2.8,4.4-1.3.9-2.7,1.2-4.8,1.2-1.2,0-1.5,0-2.3-.2-3-.8-4.8-3-5.2-6.3,0-.5-.1-4.1-.1-11.2v-10.4h-5.4v10.2Z"></path>
    <path d="M110.1,181.1v16.1h6.3c6.5,0,7.4,0,9.1-.3,2.1-.4,4.4-1.4,6.1-2.7,1.1-.8,2.6-2.4,3.4-3.5.7-1,1.8-3.1,2.1-4.2,1.1-3.5,1.1-8,0-11.3-1.6-4.8-5.6-8.4-10.7-9.6-2-.5-2.1-.5-9.5-.5h-6.9s0,16.1,0,16.1ZM124.2,169.7c2.2.4,3.7,1.2,5,2.5,1.6,1.5,2.5,3.3,3.1,5.7.2.8.2,1.1.2,3s0,2.2-.2,3c-.5,2.4-1.5,4.3-3,5.8-1.4,1.5-2.8,2.2-5.1,2.7-.7.2-1.1.2-4.7.2h-3.9s0-23.2,0-23.2h3.9c3.6,0,4,.1,4.8.3Z"></path>
    <path d="M149.8,181.1v16.1h5.4v-32.2h-5.4v16.1Z"></path>
  </g>
</svg><style>@media (prefers-color-scheme: light) { :root { filter: none; } }
@media (prefers-color-scheme: dark) { :root { filter: none; } }
</style></svg>