<?xml version="1.0" standalone="no"?>
<!DOCTYPE svg PUBLIC "-//W3C//DTD SVG 20010904//EN"
 "http://www.w3.org/TR/2001/REC-SVG-20010904/DTD/svg10.dtd">
<svg version="1.0" xmlns="http://www.w3.org/2000/svg"
 width="4584.000000pt" height="4585.000000pt" viewBox="0 0 4584.000000 4585.000000"
 preserveAspectRatio="xMidYMid meet">

<g transform="translate(0.000000,4585.000000) scale(0.100000,-0.100000)"
fill="#000000" stroke="none">
<path d="M16638 34185 c-87 -32 -154 -97 -195 -190 -16 -37 -18 -134 -26
-1455 -15 -2332 -14 -7327 1 -8055 18 -893 31 -1347 43 -1520 68 -989 316
-1862 739 -2602 285 -497 686 -973 1135 -1348 675 -563 1557 -989 2565 -1239
1440 -356 2828 -321 4100 104 946 316 1757 808 2454 1490 743 727 1291 1607
1625 2607 222 666 334 1315 362 2098 22 591 1 7076 -29 9350 l-8 540 -23 45
c-40 75 -77 115 -143 151 l-63 34 -1400 0 -1400 0 -50 -24 c-63 -32 -131 -99
-158 -159 l-22 -47 0 -3910 c0 -4635 -15 -6106 -65 -6485 -36 -273 -88 -503
-172 -760 -285 -875 -732 -1458 -1403 -1832 -494 -275 -1150 -418 -1748 -379
-1362 89 -2416 798 -2871 1934 -126 314 -200 619 -242 1007 -25 218 -24 666 0
845 78 580 270 1045 630 1530 165 222 327 403 701 785 474 484 611 654 732
905 193 401 133 817 -186 1291 -158 236 -253 344 -780 884 -392 402 -526 549
-684 747 -532 669 -749 1253 -750 2018 0 382 49 738 160 1165 27 106 34 148
30 195 -9 120 -92 233 -200 274 l-58 21 -1282 -1 c-1061 0 -1288 -3 -1319 -14z"/>
<path d="M22800 25270 c-473 -36 -915 -316 -1150 -727 -279 -486 -259 -1091
49 -1550 221 -328 557 -551 947 -630 135 -27 434 -24 571 5 420 91 769 345
981 715 202 353 246 797 117 1183 -74 223 -191 411 -360 579 -309 310 -714
458 -1155 425z"/>
<path d="M12880 15423 c-183 -14 -424 -66 -567 -123 -280 -112 -518 -346 -597
-590 -36 -109 -46 -178 -46 -316 0 -285 73 -484 243 -661 125 -131 244 -211
417 -285 97 -42 388 -126 665 -194 300 -73 438 -122 593 -213 207 -121 301
-297 272 -510 -28 -207 -165 -342 -420 -415 -342 -97 -755 -40 -1007 140 -139
100 -231 274 -250 477 l-6 67 -315 0 -314 0 7 -67 c27 -267 116 -494 272 -692
137 -176 386 -319 694 -400 183 -48 253 -55 519 -55 272 0 400 14 594 64 616
160 949 628 861 1211 -17 113 -59 235 -112 321 -71 119 -232 267 -373 346
-108 61 -210 94 -598 198 -445 119 -580 163 -725 236 -162 81 -245 144 -308
235 -59 85 -86 211 -69 321 17 104 53 173 126 242 122 113 306 177 544 187
387 16 677 -111 794 -348 40 -81 76 -210 76 -271 l0 -38 316 0 317 0 -7 73
c-27 276 -143 535 -314 703 -143 141 -422 277 -672 328 -155 31 -417 44 -610
29z"/>
<path d="M32195 15419 c-610 -64 -1073 -379 -1331 -904 -90 -184 -149 -392
-186 -650 -18 -122 -17 -600 0 -725 58 -412 187 -724 410 -990 313 -374 775
-570 1347 -570 524 0 944 158 1260 476 129 130 218 255 305 429 107 217 164
418 196 691 25 214 15 609 -19 804 -148 836 -698 1360 -1511 1439 -125 13
-353 12 -471 0z m439 -524 c244 -37 432 -130 582 -288 227 -238 338 -563 351
-1023 6 -216 -4 -361 -38 -529 -122 -605 -511 -945 -1084 -945 -459 0 -786
190 -978 570 -116 231 -177 570 -164 915 15 373 92 654 242 880 91 136 247
271 391 336 189 86 465 119 698 84z"/>
<path d="M15400 15115 l0 -255 585 0 585 0 0 -1605 0 -1605 315 0 315 0 0
1605 0 1605 585 0 585 0 0 255 0 255 -1485 0 -1485 0 0 -255z"/>
<path d="M19530 14193 c0 -676 4 -1236 10 -1315 28 -393 144 -675 370 -898
266 -265 647 -400 1129 -400 377 0 684 84 944 257 232 154 394 370 481 643 74
230 70 147 74 1593 l3 1297 -305 0 -305 0 -4 -1252 c-3 -1235 -3 -1254 -24
-1343 -58 -245 -154 -398 -322 -509 -152 -101 -310 -141 -551 -140 -143 1
-178 4 -261 26 -345 92 -551 341 -598 723 -7 61 -11 477 -11 1293 l0 1202
-315 0 -315 0 0 -1177z"/>
<path d="M24050 13511 l0 -1861 734 0 c751 0 853 4 1050 41 247 46 512 162
707 308 126 95 299 272 392 402 84 118 203 353 246 486 130 403 130 920 0
1308 -187 560 -650 977 -1236 1114 -229 53 -242 54 -1095 58 l-798 4 0 -1860z
m1624 1320 c250 -52 423 -138 575 -285 180 -173 293 -383 353 -659 20 -90 22
-131 22 -347 0 -216 -2 -257 -22 -346 -61 -280 -171 -494 -345 -672 -165 -168
-330 -256 -589 -314 -85 -19 -133 -21 -545 -25 l-453 -5 0 1342 0 1342 453 -5
c411 -4 461 -6 551 -26z"/>
<path d="M28640 13510 l0 -1860 310 0 310 0 0 1860 0 1860 -310 0 -310 0 0
-1860z"/>
</g>
</svg>
